<svg width="136" height="136" viewBox="0 0 136 136" fill="none" xmlns="http://www.w3.org/2000/svg">
<circle cx="68" cy="68" r="67.5" fill="#363663" stroke="#363663"/>
<g opacity="0.6">
<path d="M68 76.5333C72.7128 76.5333 76.5333 72.7128 76.5333 68C76.5333 63.2872 72.7128 59.4667 68 59.4667C63.2872 59.4667 59.4666 63.2872 59.4666 68C59.4666 72.7128 63.2872 76.5333 68 76.5333Z" fill="white"/>
<path d="M60 41.3333L55.12 46.6667H46.6667C43.7333 46.6667 41.3333 49.0667 41.3333 52V84C41.3333 86.9333 43.7333 89.3333 46.6667 89.3333H89.3333C92.2667 89.3333 94.6667 86.9333 94.6667 84V52C94.6667 49.0667 92.2667 46.6667 89.3333 46.6667H80.88L76 41.3333H60ZM68 81.3333C60.64 81.3333 54.6667 75.36 54.6667 68C54.6667 60.64 60.64 54.6667 68 54.6667C75.36 54.6667 81.3333 60.64 81.3333 68C81.3333 75.36 75.36 81.3333 68 81.3333Z" fill="white"/>
</g>
</svg>
